<?xml version="1.0" encoding="UTF-8"?> <svg xmlns="http://www.w3.org/2000/svg" width="62" height="60" viewBox="0 0 62 60" fill="none"><path d="M1.29999 15.3H60.7" stroke="#9AC449" stroke-width="2" stroke-linecap="round" stroke-linejoin="round"></path><path d="M8.40002 9.40002V9.50002" stroke="#9AC449" stroke-width="2" stroke-linecap="round" stroke-linejoin="round"></path><path d="M13.7 9.40002V9.50002" stroke="#9AC449" stroke-width="2" stroke-linecap="round" stroke-linejoin="round"></path><path d="M19 9.40002V9.50002" stroke="#9AC449" stroke-width="2" stroke-linecap="round" stroke-linejoin="round"></path><path d="M39.9 22.2V32.5" stroke="#69C1E2" stroke-width="2" stroke-linecap="round" stroke-linejoin="round"></path><path d="M34.8 27.3H45" stroke="#69C1E2" stroke-width="2" stroke-linecap="round" stroke-linejoin="round"></path><path d="M34.8 37.7H53" stroke="#69C1E2" stroke-width="2" stroke-linecap="round" stroke-linejoin="round"></path><path d="M34.8 44.8H53" stroke="#69C1E2" stroke-width="2" stroke-linecap="round" stroke-linejoin="round"></path><path d="M56.5 2.90002H5.5C3.01472 2.90002 1 4.91474 1 7.40002V52.5C1 54.9853 3.01472 57 5.5 57H56.5C58.9853 57 61 54.9853 61 52.5V7.40002C61 4.91474 58.9853 2.90002 56.5 2.90002Z" stroke="#9AC449" stroke-width="2" stroke-linecap="round" stroke-linejoin="round"></path><path d="M22.8 28.2001C22.8 30.6001 21 32.6 18.7 32.6C16.4 32.6 14.6 30.6001 14.6 28.2001C14.6 25.8001 16.4 23.8 18.7 23.8C21 23.8 22.8 25.8001 22.8 28.2001Z" stroke="#69C1E2" stroke-width="2" stroke-linecap="round" stroke-linejoin="round"></path><path d="M28.3 40.5V44.7H9V40.5C9 38 11 35.9 13.6 35.9H23.8C26.3 35.9 28.4 37.9 28.4 40.5H28.3Z" stroke="#69C1E2" stroke-width="2" stroke-linecap="round" stroke-linejoin="round"></path></svg> 