<?xml version="1.0" encoding="UTF-8"?> <svg xmlns="http://www.w3.org/2000/svg" width="62" height="60" viewBox="0 0 62 60" fill="none"><g clip-path="url(#clip0_352_3682)"><path d="M47.7227 8.51392H51.5964C53.7678 8.51392 55.528 10.283 55.528 12.4651C55.528 14.6472 53.7678 16.4162 51.5964 16.4162" stroke="#9AC449" stroke-width="2" stroke-linecap="round" stroke-linejoin="round"></path><path d="M54.8965 17.6332C53.2819 16.0106 50.664 16.0106 49.0493 17.6332L45.0293 21.673C43.4147 23.2956 43.4147 25.9267 45.0293 27.5493C46.644 29.1718 49.2619 29.1718 50.8765 27.5493L54.8965 23.5094C56.5111 21.8868 56.5111 19.2557 54.8965 17.6332Z" stroke="#9AC449" stroke-width="2" stroke-linecap="round" stroke-linejoin="round"></path><path d="M54.5009 34.3705L50.8036 38.0864C49.3184 39.5788 46.9105 39.5788 45.4254 38.0864C43.9402 36.594 43.9402 34.1741 45.4254 32.6816L49.123 28.9658C50.6081 27.4733 53.016 27.4733 54.5012 28.9658C55.9863 30.4582 55.9863 32.8781 54.5012 34.3705H54.5009Z" stroke="#9AC449" stroke-width="2" stroke-linecap="round" stroke-linejoin="round"></path><path d="M54.1596 44.4584L50.7393 47.8954C49.3656 49.2761 47.1383 49.2761 45.7646 47.8954C44.391 46.5148 44.391 44.2765 45.7646 42.8959L49.185 39.4588C50.5586 38.0782 52.7859 38.0782 54.1596 39.4588C55.5333 40.8394 55.5333 43.0778 54.1596 44.4584Z" stroke="#9AC449" stroke-width="2" stroke-linecap="round" stroke-linejoin="round"></path><path d="M43.8746 52.2054C43.8746 52.2054 42.092 53.7629 39.9519 55.6668C35.8792 59.2898 30.129 60.3486 25.0299 58.4195L15.6238 54.8602C10.5295 52.9326 6.88874 48.343 6.26664 42.9332C6.24011 42.7014 6.22559 42.516 6.22559 42.3856V32.725C6.22559 31.0579 6.79053 29.4332 7.83548 28.1384C7.85095 28.1154 7.86232 28.104 7.86232 28.104C10.6713 25.0349 10.9517 20.7979 11.2397 18.3281C11.3205 17.6444 11.6508 17.0451 12.1312 16.6188C12.6153 16.1886 13.2494 15.9313 13.9334 15.9275C15.5202 15.9275 16.7344 17.0798 17.2533 18.5896C18.8171 23.1376 17.6988 29.2143 15.0592 33.0632" stroke="#9AC449" stroke-width="2" stroke-linecap="round" stroke-linejoin="round"></path><path d="M14.9697 12.7993V6.29401C14.9697 3.16675 17.4923 0.631592 20.604 0.631592H42.0878C45.1996 0.631592 47.7221 3.16675 47.7221 6.29401V15.5586" stroke="#9AC449" stroke-width="2" stroke-linecap="round" stroke-linejoin="round"></path><path d="M15.0601 33.0627V36.2355L14.9717 44.2865C14.9717 47.4173 17.4923 49.9486 20.2934 49.9486H41.7535C43.256 49.9486 44.5931 49.4645 45.6112 48.6463" stroke="#9AC449" stroke-width="2" stroke-linecap="round" stroke-linejoin="round"></path><path d="M25.292 44.5935H37.4013" stroke="#9AC449" stroke-width="2" stroke-linecap="round" stroke-linejoin="round"></path><path d="M27.6816 5.70435H35.0124" stroke="#9AC449" stroke-width="2" stroke-linecap="round" stroke-linejoin="round"></path><path d="M40.8667 21.3784H34.9128V15.4292H27.781V21.3784H21.8271V28.5048H27.781V34.4536H34.9128V28.5048H40.8667V21.3784Z" stroke="#69C1E2" stroke-width="2" stroke-linecap="round" stroke-linejoin="round"></path></g><defs><clipPath id="clip0_352_3682"><rect width="51.1446" height="60" fill="white" transform="translate(5.59375)"></rect></clipPath></defs></svg> 