<?xml version="1.0" encoding="UTF-8"?> <svg xmlns="http://www.w3.org/2000/svg" width="62" height="64" viewBox="0 0 62 64" fill="none"><g clip-path="url(#clip0_107_1490)"><path d="M14.4 58.1L15.2 58.7L14.4 58.1Z" fill="#69C1E2"></path><path d="M20.7 41.7L21.6 42.0999L20.6 41.7999L20.7 41.7Z" fill="#69C1E2"></path><path d="M41.3 41.7L40.3 42L41.2 41.6L41.3 41.7Z" fill="#69C1E2"></path><path d="M43.3 38.4L43.7 39.3L43.3 38.4Z" fill="#69C1E2"></path><path d="M60.1 44.2L59.3 44.8L60 44.1L60.1 44.2Z" fill="#9AC449"></path><path d="M19 37.5C17.4 36.9 15.2 37.2 14.1 39.2L9 47.6L9.9 48.1L10.8 48.6L15.9 40.2C16.4 39.2 17.5 39 18.4 39.3C19.8 39.9 20 40.9 19.9 41.4C19.9 41.4 19.9 41.5 19.9 41.6C19.9 41.8 19.7 42.1 19.6 42.4C19.3 43.1 18.9 44.1 18.5 45.1C17.7 47.2 16.7 49.7 16.2 51C15.5 53.1 15 54.6 14.6 55.6C14.2 56.7 14 57.2 13.8 57.4C13.6 57.7 12.7 58.9 11.9 59.9C11.5 60.4 11.1 61 10.8 61.3C10.7 61.5 10.5 61.7 10.5 61.8C10.5 61.8 10.5 61.8 10.5 61.9L11.3 62.5C11.8333 62.9 12.1 63.1 12.1 63.1C12.1 63.1 12.1 63.1 12.1 63C12.1 62.9 12.3 62.7 12.4 62.5C12.7 62.1 13.1 61.6 13.5 61.1C14.3 60 15.2 58.9 15.4 58.5C15.7 58 16 57.3 16.4 56.3C16.8 55.2 17.3 53.7 18 51.6C18.4 50.4 19.4 48 20.2 45.8C20.6 44.7 21 43.8 21.3 43.1C21.4 42.7 21.6 42.5 21.6 42.3C21.6 42.2 21.6 42.1 21.6 42.1L20.7 41.7L21.7 42C22.2 40.3 21.2 38.3 19 37.4V37.5Z" fill="#9AC449"></path><path d="M2.70001 44.8L13 32.3L12.2 31.7L11.4 31.1L1.10001 43.5C-0.299993 45.1 7.19167e-06 47.1 7.19167e-06 48L0.600007 60.4H1.60001H2.60001L2.00001 48C2.00001 46.9 1.80001 45.8 2.60001 45L2.70001 44.8Z" fill="#9AC449"></path><path d="M51.3 48.6001L52.2 48.1001L53.1 47.6001L48 39.2001C46.9 37.2001 44.6 36.8001 43.1 37.5001C40.9 38.4001 39.9 40.3001 40.4 42.1001C40.4 42.1001 40.4 42.2001 40.4 42.3001C40.4 42.5001 40.6 42.8001 40.7 43.1001C41 43.8001 41.4 44.8001 41.8 45.8001C42.7 47.9001 43.6 50.3001 44 51.6001C44.7 53.7001 45.2 55.2001 45.6 56.3001C46 57.3001 46.3 58.1001 46.6 58.5001C46.8 58.8001 47.7 60.0001 48.5 61.1001C48.9 61.6001 49.3 62.2001 49.6 62.5001C49.7 62.7001 49.9 62.9001 49.9 63.0001C49.9 63.0001 49.9 63.0001 49.9 63.1001L50.7 62.5001C51.2333 62.1001 51.5 61.9001 51.5 61.9001C51.5 61.9001 51.5 61.9001 51.5 61.8001C51.5 61.7001 51.3 61.5001 51.2 61.3001C50.9 60.9001 50.5 60.4001 50.1 59.9001C49.3 58.8001 48.4 57.7001 48.2 57.4001C48.1 57.2001 47.8 56.7001 47.4 55.6001C47 54.6001 46.5 53.1001 45.8 51.0001C45.4 49.7001 44.4 47.2001 43.5 45.1001C43.1 44.0001 42.7 43.1001 42.4 42.4001C42.3 42.0001 42.1 41.8001 42.1 41.6001C42.1 41.5001 42.1 41.4001 42.1 41.4001C41.9 40.8001 42.1 39.8001 43.6 39.3001C44.4 39.0001 45.5 39.2001 46.1 40.2001L51.2 48.6001H51.3Z" fill="#9AC449"></path><path d="M60.9 43.5L50.6 31L49.8 31.6L49 32.2L59.3 44.7C60.1 45.6 60 46.7 59.9 47.7L59.3 60.1H60.3H61.3L61.9 47.7C61.9 46.9 62.2 44.8 60.8 43.3L60.9 43.5Z" fill="#9AC449"></path><path d="M47.7 0.199951H14.2C12.5 0.199951 11.2 1.59995 11.2 3.29995V38.0999H13.2V3.29995C13.2 2.69995 13.7 2.19995 14.2 2.19995H47.7C48.3 2.19995 48.8 2.69995 48.8 3.29995V38.0999H50.8V3.29995C50.8 1.59995 49.4 0.199951 47.7 0.199951Z" fill="#9AC449"></path><path d="M12.2 6.30005V7.30005H49.8V6.30005V5.30005H12.2V6.30005Z" fill="#9AC449"></path><path d="M23.4 42.3V43.3H38.6V42.3V41.3H23.4V42.3Z" fill="#9AC449"></path><path d="M20.7 49.3V50.3H41.3V49.3V48.3H20.7V49.3Z" fill="#9AC449"></path><path d="M31 8.80005C27 8.80005 23.7 12.1 23.7 16.1C23.7 20.1 27 23.4 31 23.4C35 23.4 38.3 20.1 38.3 16.1C38.3 12.1 35 8.80005 31 8.80005ZM31 21.5C28.1 21.5 25.7 19.1 25.7 16.2C25.7 13.3 28.1 10.9 31 10.9C33.9 10.9 36.3 13.3 36.3 16.2C36.3 19.1 33.9 21.5 31 21.5Z" fill="#69C1E2"></path><path d="M41.2 26.6C39.7 24.9 37.5 24.2 34.8 24.2H27.2C24.5 24.2 22.3 24.9 20.8 26.6C19.3 28.3 18.7 30.6999 18.7 33.7999V35.7H20.7V33.7999C20.7 30.8999 21.3 29.0999 22.3 27.9C23.3 26.8 24.8 26.1 27.1 26.1H34.7C37.1 26.1 38.6 26.6999 39.5 27.7999C40.5 28.9999 41.1 30.8 41.1 33.7V35.5999H43.1V33.7C43.1 30.6 42.5 28.2 41 26.5L41.2 26.6Z" fill="#69C1E2"></path></g><defs><clipPath id="clip0_107_1490"><rect width="62" height="64" fill="white"></rect></clipPath></defs></svg> 