<?xml version="1.0" encoding="UTF-8"?> <svg xmlns="http://www.w3.org/2000/svg" id="Layer_1" version="1.1" viewBox="0 0 62 60"><defs><style> .st0 { fill: #69c1e2; } .st1 { fill: #9ac449; } </style></defs><g><polygon class="st0" points="58 43.7 58 43.7 57.9 43.7 58 43.7"></polygon><path class="st0" d="M58.7,42l-1.3-1.5c-.6-.7-.9-1.5-.9-2.4v-1.8c0-1.4-.6-2.7-1.5-3.7l-6.2-7.1c-.5-.6-1.3-1-2.1-1.1-.8,0-1.6.2-2.2.8l-.5.4c-1.1-.6-2.5-.5-3.5.4l-.8.7c-1-.4-2.2-.2-3.1.5l-.7.6-2.7-3.1c-.5-.6-1.3-1-2.1-1.1-.8,0-1.6.2-2.2.8-.6.5-1,1.3-1,2.1s.2,1.6.8,2.2l6,6.9-.6,3.3c-.3,1.5.2,3.1,1.2,4.3l3.2,3.7c.9,1,2.2,1.7,3.6,1.8l3.4.2c.6,0,1.1.3,1.4.7l1.4,1.6.2.2v.2c0,0,.6,0,.6,0,.2,0,.5,0,.7-.3.2-.2.3-.4.3-.7s0-.5-.2-.7l-1.4-1.6c-.7-.8-1.7-1.3-2.8-1.4l-3.4-.2c-.9,0-1.6-.4-2.2-1.1l-3.2-3.7c-.6-.7-.9-1.7-.7-2.6l.3-1.7,3.9,4.5c.2.2.5.3.8.3h.9l-.2-.2h0c.2-.2.3-.4.3-.7s0-.5-.2-.7l-11.7-13.4c-.2-.2-.3-.5-.3-.8s.1-.5.4-.7c.2-.2.5-.3.8-.3s.5.1.7.4l3.3,3.8h0l4.2,4.9c.2.2.4.3.7.3s.5,0,.7-.2.3-.4.3-.7,0-.5-.2-.7l-3.6-4.1.7-.6c.2-.2.5-.3.8-.3s.5.1.7.4l3.2,3.7c0,0,.2.2.4.3h.4c.2,0,.5,0,.7-.2s.3-.4.4-.7c0-.3,0-.5-.2-.7l-2.8-3.2.5-.4c.2-.2.5-.3.8-.3s.5.1.7.4l3.3,3.8c0,.1.2.2.4.3h.4c.2,0,.5,0,.7-.3.4-.4.5-1,0-1.4l-2.7-3.1.3-.3c.2-.2.5-.3.8-.3s.5.1.7.4l6.2,7.1c.6.7.9,1.5.9,2.4v1.8c0,1.4.6,2.7,1.5,3.7l1.3,1.5c.2.2.5.3.8.3h0c.2,0,.5,0,.7-.3.2-.2.3-.4.3-.7s0-.5-.2-.7h-.4Z"></path><path class="st0" d="M39,49c-.6,0-1,.5-1,1v4.7c0,1.7-1.4,3.1-3.1,3.1H8.7c-1.7,0-3.1-1.4-3.1-3.1V5.3c0-1.7,1.4-3.1,3.1-3.1h4.2l1.6,2.6c.5.8,1.4,1.4,2.4,1.4h9.9c1,0,1.9-.5,2.4-1.4l1.6-2.6h4.2c1.7,0,3.1,1.4,3.1,3.1v18.8c0,.6.5,1,1,1s1-.5,1-1V5.3c0-2.9-2.3-5.2-5.2-5.2H8.7c-2.9,0-5.2,2.3-5.2,5.2v49.4c0,2.9,2.3,5.2,5.2,5.2h26.2c2.8,0,5.2-2.3,5.2-5.2v-4.7c0-.6-.5-1-1-1h-.1ZM28.3,2.1l-.9,1.5c-.1.2-.4.4-.7.4h-9.9c-.3,0-.6,0-.7-.4l-.9-1.5h13.1Z"></path><path class="st0" d="M21.8,23.1c1,0,1.8.8,1.8,1.8s.5,1,1,1,1-.5,1-1c0-1.7-1.2-3.2-2.8-3.6v-.5c0-.6-.5-1-1-1s-1,.5-1,1v.5c-1.6.4-2.8,1.9-2.8,3.6s1.7,3.8,3.8,3.8,1.8.8,1.8,1.8-.8,1.8-1.8,1.8h0c-1,0-1.8-.8-1.8-1.8s-.5-1-1-1-1,.5-1,1c0,1.7,1.2,3.2,2.8,3.6v.5c0,.6.5,1,1,1s1-.5,1-1v-.5c1.6-.4,2.8-1.9,2.8-3.6s-1.7-3.8-3.8-3.8-1.8-.8-1.8-1.8.8-1.8,1.8-1.8Z"></path><path class="st0" d="M29.1,22c.2.2.4.4.7.4s.5,0,.7-.2.4-.4.4-.7,0-.5-.2-.8c-2.1-2.8-5.4-4.4-8.9-4.4-6.2,0-11.2,5-11.2,11.2s5,11.2,11.2,11.2h.4c3.4,0,6.7-1.8,8.7-4.6.3-.5.2-1.1-.2-1.4-.5-.3-1.1-.2-1.4.2-1.7,2.4-4.5,3.8-7.4,3.8-5.1,0-9.2-4.1-9.2-9.2s4.1-9.2,9.2-9.2,5.6,1.3,7.3,3.6h-.1Z"></path><path class="st0" d="M17.8,53.7c-.6,0-1,.5-1,1s.5,1,1,1h7.9c.6,0,1-.5,1-1s-.5-1-1-1h-7.9Z"></path></g><g><polygon class="st1" points="58 43.7 58 43.7 57.9 43.7 58 43.7"></polygon><path class="st1" d="M58.7,42l-1.3-1.5c-.6-.7-.9-1.5-.9-2.4v-1.8c0-1.4-.6-2.7-1.5-3.7l-6.2-7.1c-.5-.6-1.3-1-2.1-1.1-.8,0-1.6.2-2.2.8l-.5.4c-1.1-.6-2.5-.5-3.5.4l-.8.7c-1-.4-2.2-.2-3.1.5l-.7.6-2.7-3.1c-.5-.6-1.3-1-2.1-1.1-.8,0-1.6.2-2.2.8-.6.5-1,1.3-1,2.1s.2,1.6.8,2.2l6,6.9-.6,3.3c-.3,1.5.2,3.1,1.2,4.3l3.2,3.7c.9,1,2.2,1.7,3.6,1.8l3.4.2c.6,0,1.1.3,1.4.7l1.4,1.6.2.2v.2c0,0,.6,0,.6,0,.2,0,.5,0,.7-.3.2-.2.3-.4.3-.7s0-.5-.2-.7l-1.4-1.6c-.7-.8-1.7-1.3-2.8-1.4l-3.4-.2c-.9,0-1.6-.4-2.2-1.1l-3.2-3.7c-.6-.7-.9-1.7-.7-2.6l.3-1.7,3.9,4.5c.2.2.5.3.8.3h.9l-.2-.2h0c.2-.2.3-.4.3-.7s0-.5-.2-.7l-11.7-13.4c-.2-.2-.3-.5-.3-.8s.1-.5.4-.7c.2-.2.5-.3.8-.3s.5.1.7.4l3.3,3.8h0l4.2,4.9c.2.2.4.3.7.3s.5,0,.7-.2.3-.4.3-.7,0-.5-.2-.7l-3.6-4.1.7-.6c.2-.2.5-.3.8-.3s.5.1.7.4l3.2,3.7c0,0,.2.2.4.3h.4c.2,0,.5,0,.7-.2s.3-.4.4-.7c0-.3,0-.5-.2-.7l-2.8-3.2.5-.4c.2-.2.5-.3.8-.3s.5.1.7.4l3.3,3.8c0,.1.2.2.4.3h.4c.2,0,.5,0,.7-.3.4-.4.5-1,0-1.4l-2.7-3.1.3-.3c.2-.2.5-.3.8-.3s.5.1.7.4l6.2,7.1c.6.7.9,1.5.9,2.4v1.8c0,1.4.6,2.7,1.5,3.7l1.3,1.5c.2.2.5.3.8.3h0c.2,0,.5,0,.7-.3.2-.2.3-.4.3-.7s0-.5-.2-.7h-.4Z"></path><path class="st1" d="M21.8,23.1c1,0,1.8.8,1.8,1.8s.5,1,1,1,1-.5,1-1c0-1.7-1.2-3.2-2.8-3.6v-.5c0-.6-.5-1-1-1s-1,.5-1,1v.5c-1.6.4-2.8,1.9-2.8,3.6s1.7,3.8,3.8,3.8,1.8.8,1.8,1.8-.8,1.8-1.8,1.8h0c-1,0-1.8-.8-1.8-1.8s-.5-1-1-1-1,.5-1,1c0,1.7,1.2,3.2,2.8,3.6v.5c0,.6.5,1,1,1s1-.5,1-1v-.5c1.6-.4,2.8-1.9,2.8-3.6s-1.7-3.8-3.8-3.8-1.8-.8-1.8-1.8.8-1.8,1.8-1.8Z"></path><path class="st1" d="M29.1,22c.2.2.4.4.7.4s.5,0,.7-.2.4-.4.4-.7,0-.5-.2-.8c-2.1-2.8-5.4-4.4-8.9-4.4-6.2,0-11.2,5-11.2,11.2s5,11.2,11.2,11.2h.4c3.4,0,6.7-1.8,8.7-4.6.3-.5.2-1.1-.2-1.4-.5-.3-1.1-.2-1.4.2-1.7,2.4-4.5,3.8-7.4,3.8-5.1,0-9.2-4.1-9.2-9.2s4.1-9.2,9.2-9.2c0,0,4.3-.4,7.2,3.7Z"></path></g></svg> 