<?xml version="1.0" encoding="UTF-8"?>
<svg id="Layer_1" xmlns="http://www.w3.org/2000/svg" version="1.1" viewBox="0 0 595.5 131.2">
  <!-- Generator: Adobe Illustrator 29.8.2, SVG Export Plug-In . SVG Version: 2.1.1 Build 3)  -->
  <defs>
    <style>
      .st0 {
        fill: #329846;
      }

      .st1 {
        fill: #9acb44;
      }

      .st2 {
        fill: #535252;
      }

      .st3 {
        fill: #5dcae9;
      }
    </style>
  </defs>
  <path class="st2" d="M154.5,107.6h-9.5v-63.7h9.5v4.5c3.7-3.7,8-5.6,12.8-5.6s10.4,2.2,14,6.3c3.7,4.1,5.6,9.3,5.6,15.8s-1.9,11.2-5.6,15.3c-3.7,4.1-8.2,6-13.8,6s-9.1-1.9-13-5.8c0,0,0,27.2,0,27.2ZM177.2,64.8c0-3.9-1.1-7.1-3.2-9.7-2.2-2.6-5-3.7-8.2-3.7s-6.3,1.3-8.4,3.7c-2.2,2.4-3.2,5.6-3.2,9.5s1.1,7.1,3.2,9.5c2.2,2.4,5,3.7,8.4,3.7s6.1-1.3,8.2-3.7c2.2-2.6,3.2-5.6,3.2-9.3"/>
  <path class="st2" d="M194.7,43.9h9.5v3.7c1.7-1.7,3.2-3,4.8-3.7,1.3-.6,3-1.1,5-1.1s5.2.9,7.8,2.4l-4.3,8.6c-1.7-1.3-3.7-1.9-5.2-1.9-5.2,0-7.8,3.9-7.8,11.7v21.4h-9.5v-41.1h-.3Z"/>
  <path class="st2" d="M254.8,43.9h9.5v41.3h-9.5v-4.3c-3.9,3.7-8.2,5.4-12.7,5.4s-10.4-2.2-14-6.3c-3.7-4.1-5.6-9.5-5.6-15.8s1.9-11.2,5.6-15.3c3.7-4.1,8.2-6.3,13.8-6.3s9.1,1.9,13,5.8v-4.5h0ZM232.3,64.4c0,3.9,1.1,7.1,3.2,9.7,2.2,2.6,5,3.7,8.2,3.7s6.3-1.3,8.6-3.7c2.2-2.6,3.2-5.6,3.2-9.5s-1.1-7.1-3.2-9.5c-2.2-2.4-5-3.7-8.4-3.7s-6,1.3-8.2,3.7c-2.4,2.6-3.5,5.6-3.5,9.3"/>
  <path class="st2" d="M306.2,45.8v12.8c-2.2-2.6-4.1-4.5-5.8-5.4-1.7-1.1-3.7-1.5-6.1-1.5-3.7,0-6.5,1.3-8.9,3.7-2.4,2.6-3.5,5.6-3.5,9.5s1.1,7.1,3.5,9.5,5.2,3.7,8.9,3.7,4.3-.4,6.1-1.5c1.7-.9,3.7-2.8,6.1-5.6v12.5c-3.9,1.9-7.8,3-11.7,3-6.3,0-11.7-2.2-16-6.3-4.3-4.1-6.5-9.3-6.5-15.3s2.2-11.2,6.5-15.6c4.3-4.3,9.7-6.3,16-6.3,4.1-.2,7.8.9,11.5,2.8"/>
  <polygon class="st2" points="323.1 52.7 323.1 84.9 313.5 84.9 313.5 52.7 309.4 52.7 309.4 43.9 313.5 43.9 313.5 28.7 323.1 28.7 323.1 43.9 330.4 43.9 330.4 52.7 323.1 52.7"/>
  <path class="st2" d="M333.4,26.8c0-1.7.6-3,1.7-4.3,1.3-1.3,2.6-1.7,4.3-1.7s3.2.6,4.3,1.7c1.3,1.1,1.7,2.6,1.7,4.3s-.6,3.2-1.7,4.3c-1.1,1.3-2.6,1.7-4.3,1.7s-3.2-.6-4.3-1.7c-1.3-1.1-1.7-2.6-1.7-4.3M344.2,85.1h-9.5v-41.3h9.5v41.3Z"/>
  <path class="st2" d="M386.2,45.8v12.8c-2.2-2.6-4.1-4.5-5.8-5.4-1.7-1.1-3.7-1.5-6-1.5-3.7,0-6.5,1.3-8.9,3.7-2.4,2.6-3.5,5.6-3.5,9.5s1.1,7.1,3.5,9.5,5.2,3.7,8.9,3.7,4.3-.4,6-1.5c1.7-.9,3.7-2.8,6.1-5.6v12.5c-3.9,1.9-7.8,3-11.7,3-6.3,0-11.7-2.2-16-6.3-4.3-4.1-6.5-9.3-6.5-15.3s2.2-11.2,6.5-15.6c4.3-4.3,9.7-6.3,16-6.3,4.1-.2,8,.9,11.5,2.8"/>
  <path class="st2" d="M430.9,66.8h-29.6c.2,3.5,1.3,6,3.2,8,1.9,1.9,4.5,3,7.6,3s4.3-.7,5.8-1.7c1.5-1.1,3.2-3.2,5.2-6.3l8,4.5c-1.3,2.2-2.6,3.9-3.9,5.4s-2.8,2.8-4.5,3.7c-1.5,1.1-3.2,1.7-5.2,2.2-1.7.4-3.9.6-6,.6-6.1,0-11-1.9-14.7-5.8s-5.6-9.3-5.6-15.8,1.7-11.9,5.4-15.8c3.7-3.9,8.4-6,14.5-6s10.8,1.9,14.5,5.8c3.5,3.9,5.2,9.1,5.2,16l.2,2.2h-.1ZM420.9,59c-1.3-5-4.5-7.6-9.5-7.6s-2.2.2-3.2.4c-1.1.4-1.9.9-2.8,1.5s-1.5,1.5-2.2,2.4c-.6.9-1.1,1.9-1.3,3.2h19Z"/>
  <path class="st2" d="M462,51l-7.8,4.1c-1.3-2.6-2.8-3.9-4.5-3.9s-1.5.2-2.2.9c-.6.6-.9,1.3-.9,2.2,0,1.5,1.7,3.2,5.4,4.8,5,2.2,8.4,4.1,10.2,6,1.7,1.7,2.6,4.3,2.6,7.3s-1.5,7.3-4.3,9.9-6.3,3.9-10.4,3.9c-6.9,0-11.9-3.5-14.7-10.2l8.2-3.7c1.1,1.9,1.9,3.2,2.6,3.7,1.1,1.1,2.6,1.5,4.1,1.5,3.2,0,4.8-1.5,4.8-4.3s-1.3-3.2-3.7-4.8c-.9-.4-1.9-.9-2.8-1.3s-1.9-.9-3-1.3c-2.8-1.3-4.8-2.8-5.8-4.1-1.5-1.7-2.2-3.9-2.2-6.7s1.3-6.5,3.7-8.9c2.6-2.4,5.6-3.5,9.1-3.5,5.2,0,9.3,2.8,11.7,8.2"/>
  <path class="st2" d="M480.6,43.9v23.6c0,6.9,2.6,10.2,8,10.2s8-3.5,8-10.2v-23.6h9.5v23.8c0,3.2-.4,6-1.3,8.6-.9,2.2-2.2,4.1-4.1,5.8-3.2,2.8-7.3,4.1-12.3,4.1s-9.1-1.3-12.3-4.1c-1.9-1.7-3.5-3.7-4.1-5.8-.9-1.9-1.1-4.8-1.1-8.6v-23.8h9.7,0Z"/>
  <path class="st2" d="M514.7,26.8c0-1.7.6-3,1.7-4.3,1.3-1.3,2.6-1.7,4.3-1.7s3.2.6,4.3,1.7c1.3,1.1,1.7,2.6,1.7,4.3s-.6,3.2-1.7,4.3c-1.1,1.3-2.6,1.7-4.3,1.7s-3.2-.6-4.3-1.7c-1.1-1.1-1.7-2.6-1.7-4.3M525.7,85.1h-9.5v-41.3h9.5v41.3Z"/>
  <polygon class="st2" points="545.4 52.7 545.4 84.9 535.9 84.9 535.9 52.7 531.8 52.7 531.8 43.9 535.9 43.9 535.9 28.7 545.4 28.7 545.4 43.9 552.8 43.9 552.8 52.7 545.4 52.7"/>
  <path class="st2" d="M595.3,66.8h-29.6c.2,3.5,1.3,6,3.2,8,1.9,1.9,4.5,3,7.6,3s4.3-.7,5.8-1.7c1.5-1.1,3.2-3.2,5.2-6.3l8,4.5c-1.3,2.2-2.6,3.9-3.9,5.4-1.3,1.5-2.8,2.8-4.5,3.7-1.5,1.1-3.2,1.7-5.2,2.2-1.7.4-3.9.6-6.1.6-6,0-11-1.9-14.7-5.8s-5.6-9.3-5.6-15.8,1.7-11.9,5.4-15.8c3.7-3.9,8.4-6,14.5-6s10.8,1.9,14.5,5.8c3.5,3.9,5.2,9.1,5.2,16l.2,2.2h0ZM585.6,59c-1.3-5-4.5-7.6-9.5-7.6s-2.2.2-3.2.4c-1.1.4-1.9.9-2.8,1.5-.9.6-1.5,1.5-2.2,2.4s-1.1,1.9-1.3,3.2h19Z"/>
  <path class="st1" d="M43.4,107.8c0,11.5,9.5,21,21,21s21-9.5,21-21v-22.5h-41.9v22.5h0Z"/>
  <path class="st1" d="M64.4,0h0c-11.5,0-21,9.5-21,21v22.5h41.9v-22.5c0-11.5-9.5-21-21-21"/>
  <path class="st3" d="M21,43.4c-11.5,0-21,9.5-21,21s9.5,21,21,21h22.5v-41.9h-22.5Z"/>
  <path class="st3" d="M107.8,43.4h-22.5v41.9h22.5c11.5,0,21-9.5,21-21s-9.5-21-21-21"/>
  <rect class="st0" x="43.4" y="43.4" width="41.9" height="41.9"/>
</svg>