<?xml version="1.0" encoding="UTF-8"?> <svg xmlns="http://www.w3.org/2000/svg" width="62" height="66" viewBox="0 0 62 66" fill="none"><g clip-path="url(#clip0_107_1444)"><path d="M48.6 8.59998H57C59.2 8.59998 60.9 10.4 60.9 12.5V50.7C60.9 52.9 59.1 54.6 57 54.6H4.9C2.7 54.6 1 52.8 1 50.7V12.5C1 10.3 2.8 8.59998 4.9 8.59998H13.3" stroke="#9AC449" stroke-width="2" stroke-linecap="round" stroke-linejoin="round"></path><path d="M1 47.1H61" stroke="#9AC449" stroke-width="2" stroke-linecap="round" stroke-linejoin="round"></path><path d="M24.5 54.6V64.5" stroke="#9AC449" stroke-width="2" stroke-linecap="round" stroke-linejoin="round"></path><path d="M37.1 54.6V64.5" stroke="#9AC449" stroke-width="2" stroke-linecap="round" stroke-linejoin="round"></path><path d="M18.4 64.5H43.3" stroke="#9AC449" stroke-width="2" stroke-linecap="round" stroke-linejoin="round"></path><path d="M8.60001 44.3V19.3H18.4" stroke="#69C1E2" stroke-width="2" stroke-linecap="round" stroke-linejoin="round"></path><path d="M43.6 19.3H53.4V44.3" stroke="#69C1E2" stroke-width="2" stroke-linecap="round" stroke-linejoin="round"></path><path d="M18.4 27.6H13.2" stroke="#69C1E2" stroke-width="2" stroke-linecap="round" stroke-linejoin="round"></path><path d="M13.2 33.3H18.4" stroke="#69C1E2" stroke-width="2" stroke-linecap="round" stroke-linejoin="round"></path><path d="M18.4 38.8H13.2" stroke="#69C1E2" stroke-width="2" stroke-linecap="round" stroke-linejoin="round"></path><path d="M48.8 27.6H43.6" stroke="#69C1E2" stroke-width="2" stroke-linecap="round" stroke-linejoin="round"></path><path d="M43.6 33.3H48.8" stroke="#69C1E2" stroke-width="2" stroke-linecap="round" stroke-linejoin="round"></path><path d="M48.8 38.8H43.6" stroke="#69C1E2" stroke-width="2" stroke-linecap="round" stroke-linejoin="round"></path><path d="M38.1 8.59998H43.6V44" stroke="#69C1E2" stroke-width="2" stroke-linecap="round" stroke-linejoin="round"></path><path d="M18.4 44V8.59998H23.9" stroke="#69C1E2" stroke-width="2" stroke-linecap="round" stroke-linejoin="round"></path><path d="M25.2 44.3V33.3H36.8V44.3" stroke="#69C1E2" stroke-width="2" stroke-linecap="round" stroke-linejoin="round"></path><path d="M23.2 20.4H38.2" stroke="#69C1E2" stroke-width="2" stroke-linecap="round" stroke-linejoin="round"></path><path d="M23.2 25.7H38.2" stroke="#69C1E2" stroke-width="2" stroke-linecap="round" stroke-linejoin="round"></path><path d="M38.1 5.9H33.7V1.5H28.3V5.9H23.9V11.2H28.3V15.6H33.7V11.2H38.1V5.9Z" stroke="#69C1E2" stroke-width="2" stroke-linecap="round" stroke-linejoin="round"></path></g><defs><clipPath id="clip0_107_1444"><rect width="62" height="66" fill="white"></rect></clipPath></defs></svg> 