<?xml version="1.0" encoding="UTF-8"?> <svg xmlns="http://www.w3.org/2000/svg" width="63" height="60" viewBox="0 0 63 60" fill="none"><g clip-path="url(#clip0_352_3755)"><path d="M52.664 36.6748L52.7569 35.2455C52.9281 32.5972 51.1614 30.4029 48.5787 29.1643L46.2217 31.8816" stroke="#69C1E2" stroke-width="2" stroke-linecap="round" stroke-linejoin="round"></path><path d="M39.1426 33.5069L39.2346 32.0775C39.4058 29.4301 41.4008 28.1165 44.0644 28.1072L47.3473 34.0538" stroke="#69C1E2" stroke-width="2" stroke-linecap="round" stroke-linejoin="round"></path><path d="M42.6886 20.6811C42.8444 18.2712 44.8096 16.7473 47.078 17.2789C49.3439 17.8104 51.0552 20.1947 50.8993 22.6062C50.7434 25.0168 48.7791 26.5416 46.5141 26.0109C44.2448 25.4794 42.5327 23.0934 42.6886 20.6811Z" stroke="#69C1E2" stroke-width="2" stroke-linecap="round" stroke-linejoin="round"></path><path d="M1.45312 50.7258L2.91315 38.1648C3.93278 31.742 7.56496 28.9233 12.3795 28.9233C15.8873 28.9233 19.1165 30.8774 20.9548 35.404L24.5571 44.0509L35.7075 45.2153C37.0227 45.6191 37.9436 46.6123 37.9436 48.4855C37.9436 50.7249 36.4937 51.9328 34.0175 51.9328H21.2376C19.3763 51.9328 17.953 50.8919 17.0466 49.0426L13.3676 41.3225" stroke="#9AC449" stroke-width="2" stroke-linecap="round" stroke-linejoin="round"></path><path d="M61.7558 41.3224L31.1855 34.1714V10.6636L61.7558 16.8291V41.3224Z" stroke="#69C1E2" stroke-width="2" stroke-linecap="round" stroke-linejoin="round"></path><path d="M30.4258 41.6743L35.6219 39.2815L56.8945 44.395L48.7971 48.1243L40.9671 46.2417" stroke="#69C1E2" stroke-width="2" stroke-linecap="round" stroke-linejoin="round"></path><path d="M42.335 36.7278V40.8975" stroke="#69C1E2" stroke-width="2" stroke-linecap="round" stroke-linejoin="round"></path><path d="M47.5723 37.9927V42.1624" stroke="#69C1E2" stroke-width="2" stroke-linecap="round" stroke-linejoin="round"></path><path d="M8.10746 15.2064C7.10827 20.1572 10.3086 24.9777 15.2602 25.9769C20.2093 26.9752 25.0315 23.7749 26.0332 18.8266C27.0316 13.8741 23.8304 9.05282 18.8796 8.05448C13.9288 7.05529 9.10835 10.2556 8.10746 15.2064Z" stroke="#9AC449" stroke-width="2" stroke-linecap="round" stroke-linejoin="round"></path></g><defs><clipPath id="clip0_352_3755"><rect width="62" height="45.7659" fill="white" transform="translate(0.607422 7.01953)"></rect></clipPath></defs></svg> 